<?xml version="1.0" encoding="UTF-8"?>
<svg width="865px" height="296px" viewBox="0 0 865 296" version="1.1" xmlns="http://www.w3.org/2000/svg" xmlns:xlink="http://www.w3.org/1999/xlink">
    <title>floraison-logo</title>
    <g id="floraison-logo" stroke="none" stroke-width="1" fill="none" fill-rule="evenodd">
        <g id="Floraison" transform="translate(60.000000, 62.000000)" fill="#000000">
            <path d="M76.251,26.682 L73.791,25.664 C72.604,25.24 70.653,24.816 68.024,24.222 C65.479,23.628 63.019,23.374 60.645,23.374 C54.198,23.374 49.788,24.561 47.413,26.936 C45.038,29.311 43.851,33.806 43.851,40.337 L43.851,41.101 L69.381,41.101 L69.381,63.577 L44.953,63.577 L44.953,144.239 L12.892,144.239 L12.892,63.577 L0,63.577 L0,41.101 L12.892,41.101 L12.892,38.302 C12.892,25.664 16.2,16.249 22.731,9.973 C29.347,3.611 39.355,0.473 52.757,0.473 C57.421,0.473 61.747,0.643 65.818,0.982 C69.89,1.321 73.367,1.745 76.251,2.339 L76.251,26.682" id="Fill-1"></path>
            <polygon id="Fill-2" points="79.728 144.239 111.789 144.239 111.789 1.406 79.728 1.406"></polygon>
            <path d="M191.348,92.924 L191.348,92.924 C191.348,86.817 190.839,81.728 189.906,77.657 C188.889,73.586 187.447,70.278 185.665,67.818 C183.799,65.274 181.679,63.492 179.304,62.475 C176.844,61.457 174.13,60.948 171.077,60.948 C168.193,60.948 165.649,61.372 163.274,62.305 C160.984,63.153 158.863,64.849 156.912,67.394 C155.046,69.769 153.604,73.077 152.502,77.233 C151.399,81.389 150.805,86.563 150.805,92.924 C150.805,99.201 151.314,104.29 152.417,108.191 C153.435,112.093 154.792,115.146 156.403,117.521 C158.1,119.896 160.305,121.592 162.85,122.695 C165.394,123.798 168.278,124.391 171.416,124.391 C173.961,124.391 176.59,123.798 179.219,122.695 C181.849,121.592 183.969,119.981 185.581,117.776 C187.531,115.146 188.973,112.008 189.906,108.276 C190.924,104.544 191.348,99.455 191.348,92.924 Z M224.342,92.754 C224.342,109.633 219.677,123.034 210.432,132.788 C201.187,142.542 188.04,147.462 171.077,147.462 C154.283,147.462 141.221,142.542 131.891,132.788 C122.561,123.034 117.896,109.633 117.896,92.754 C117.896,75.621 122.561,62.135 131.891,52.466 C141.221,42.797 154.283,37.962 171.077,37.962 C187.956,37.962 201.102,42.797 210.347,52.551 C219.677,62.305 224.342,75.706 224.342,92.754 L224.342,92.754 Z" id="Fill-3"></path>
            <path d="M301.272,72.568 L298.642,71.55 C297.37,71.126 295.589,70.787 293.299,70.532 C290.924,70.363 288.379,70.278 285.58,70.278 C282.188,70.278 278.71,70.702 274.978,71.72 C271.246,72.653 266.157,76.385 264.206,80.032 L264.206,144.239 L232.061,144.239 L232.061,41.101 L264.206,41.101 L264.037,62.305 C264.206,59.336 268.108,53.399 270.483,51.024 C272.858,48.734 275.233,47.123 277.438,45.935 C279.728,44.493 282.442,43.306 285.496,42.288 C288.634,41.27 291.518,40.761 294.317,40.761 C295.334,40.761 296.522,40.846 297.794,40.846 C299.066,40.931 300.254,41.016 301.272,41.101 L301.272,72.568" id="Fill-4"></path>
            <path d="M363.528,108.276 L363.528,109.803 L363.613,95.808 C358.184,96.402 353.774,96.826 350.381,97.25 C346.988,97.674 343.68,98.437 340.457,99.625 C337.658,100.558 335.453,102.084 333.926,104.035 C332.315,106.071 331.552,108.7 331.552,112.008 C331.636,116.334 334.35,120.32 336.132,121.677 C338.676,123.628 341.899,125.07 346.988,125.07 C349.872,125.07 352.841,124.476 355.725,123.034 C359.117,121.253 363.528,116.843 363.528,108.276 Z M363.613,133.297 C361.407,135.163 359.456,136.775 357.675,138.217 C355.894,139.743 353.604,141.185 350.635,142.627 C347.752,144.069 344.953,145.087 342.239,145.85 C339.524,146.614 335.708,146.953 330.873,146.953 C321.713,146.953 314.164,143.899 308.142,137.793 C302.12,131.686 299.066,123.967 299.066,114.637 C299.066,107.004 300.593,100.812 303.647,96.147 C306.7,91.397 311.111,87.665 316.878,84.951 C322.73,82.067 329.601,80.117 337.743,79.014 C345.801,77.911 354.452,77.063 363.782,76.469 L363.782,75.961 C363.782,70.278 361.662,66.291 357.506,64.171 C353.265,61.966 346.988,60.863 338.676,60.863 C334.859,60.863 330.364,61.542 325.36,62.899 C320.271,64.341 315.267,66.037 310.432,68.242 L307.718,69.514 L307.718,43.306 C310.856,42.458 316.03,41.355 323.155,40.083 C330.194,38.81 337.404,38.217 344.613,38.217 C362.34,38.217 375.233,41.185 383.375,47.038 C391.518,52.975 395.504,61.966 395.504,74.095 L395.504,144.239 L363.613,144.239 L363.613,133.297 L363.613,133.297 Z" id="Fill-5"></path>
            <path d="M404.07,144.239 L436.131,144.239 L436.131,41.101 L404.07,41.101 L404.07,144.239 Z M403.137,26.427 L437.064,26.427 L437.064,1.406 L403.137,1.406 L403.137,26.427 Z" id="Fill-6"></path>
            <path d="M482.018,147.038 C474.384,147.038 467.175,146.189 460.474,144.578 C453.689,142.882 448.091,141.016 443.68,138.81 L443.595,108.955 L446.394,111.669 C447.921,112.771 449.617,114.044 451.568,115.486 C453.519,116.927 456.318,118.369 459.796,119.896 C462.764,121.253 466.157,122.525 469.889,123.543 C473.706,124.561 477.777,124.985 482.187,124.985 C486.683,124.985 490.669,124.307 494.147,122.949 C497.624,121.508 499.32,119.302 499.32,116.249 C499.32,113.789 498.557,112.008 496.946,110.821 C495.334,109.548 492.281,108.446 487.701,107.343 C485.241,106.664 482.103,106.071 478.371,105.307 C474.639,104.629 471.331,103.866 468.447,102.933 C460.389,100.388 454.367,96.656 450.296,91.737 C446.225,86.817 444.189,80.371 444.189,72.313 C444.189,67.733 445.207,63.408 447.327,59.336 C449.448,55.265 452.586,51.703 456.657,48.48 C460.729,45.341 465.818,42.882 471.84,41.016 C477.862,39.235 484.647,38.302 492.281,38.302 C499.49,38.302 506.106,38.98 512.128,40.422 C518.235,41.864 523.324,43.645 527.48,45.596 L527.565,74.264 L524.935,71.72 C523.833,70.871 522.052,69.684 519.677,68.242 C517.302,66.8 515.012,65.613 512.722,64.51 C510.007,63.323 507.039,62.305 503.646,61.542 C500.338,60.693 496.946,60.354 493.468,60.354 C488.803,60.354 484.902,61.117 481.678,62.729 C478.455,64.341 476.844,66.376 476.844,69.005 C476.844,71.38 477.607,73.246 479.219,74.519 C480.83,75.876 484.308,77.233 489.566,78.505 C492.365,79.184 495.504,79.862 499.066,80.456 C502.713,81.134 506.106,81.983 509.414,83.085 C516.793,85.46 522.476,88.938 526.292,93.603 C530.109,98.183 531.975,104.374 531.975,112.008 C531.975,116.843 530.873,121.423 528.583,125.833 C526.377,130.159 523.154,133.891 518.998,136.86 C514.588,140.083 509.329,142.627 503.392,144.408 C497.455,146.189 490.33,147.038 482.018,147.038" id="Fill-7"></path>
            <path d="M609.074,92.924 L609.074,92.924 C609.074,86.817 608.565,81.728 607.548,77.657 C606.53,73.586 605.173,70.278 603.392,67.818 C601.526,65.274 599.32,63.492 596.945,62.475 C594.571,61.457 591.856,60.948 588.803,60.948 C585.919,60.948 583.29,61.372 581,62.305 C578.625,63.153 576.504,64.849 574.554,67.394 C572.688,69.769 571.246,73.077 570.143,77.233 C569.04,81.389 568.532,86.563 568.532,92.924 C568.532,99.201 569.04,104.29 570.058,108.191 C571.076,112.093 572.433,115.146 574.13,117.521 C575.826,119.896 577.946,121.592 580.491,122.695 C583.12,123.798 585.919,124.391 589.057,124.391 C591.602,124.391 594.231,123.798 596.945,122.695 C599.575,121.592 601.695,119.981 603.307,117.776 C605.173,115.146 606.615,112.008 607.632,108.276 C608.565,104.544 609.074,99.455 609.074,92.924 Z M641.984,92.754 C641.984,109.633 637.403,123.034 628.158,132.788 C618.828,142.542 605.766,147.462 588.803,147.462 C571.924,147.462 558.862,142.542 549.532,132.788 C540.203,123.034 535.538,109.633 535.538,92.754 C535.538,75.621 540.203,62.135 549.532,52.466 C558.862,42.797 571.924,37.962 588.803,37.962 C605.682,37.962 618.744,42.797 628.073,52.551 C637.403,62.305 641.984,75.706 641.984,92.754 L641.984,92.754 Z" id="Fill-8"></path>
            <path d="M745.461,144.239 L713.145,144.239 L713.145,93.094 C713.145,88.938 712.976,84.782 712.636,80.625 C712.297,76.554 711.703,73.501 710.77,71.55 C709.668,69.175 708.056,67.564 706.021,66.546 C703.9,65.528 701.101,65.019 697.624,65.019 C694.994,65.019 692.365,65.528 689.651,66.461 C686.937,67.479 684.138,69.005 681,71.126 L681,144.239 L648.939,144.239 L648.939,41.101 L681,41.101 L681,52.551 C686.258,48.056 691.432,44.578 696.436,42.034 C701.356,39.574 706.954,38.302 712.976,38.302 C723.493,38.302 731.551,41.609 737.149,48.225 C742.662,54.926 745.461,64.51 745.461,77.148 L745.461,144.239" id="Fill-9"></path>
            <path d="M765.616,28.632 L761.799,28.632 L761.799,23.034 L765.616,23.034 C767.312,23.034 768.5,24.137 768.5,25.833 C768.5,27.445 767.312,28.632 765.616,28.632 Z M770.535,36.011 L766.634,30.074 C768.585,29.905 770.451,28.463 770.451,25.833 C770.451,23.119 768.5,21.423 765.87,21.423 L760.018,21.423 L760.018,36.011 L761.799,36.011 L761.799,30.159 L764.683,30.159 L768.415,36.011 L770.535,36.011 L770.535,36.011 Z" id="Fill-10"></path>
            <path d="M764.937,15.236 C757.66,15.236 751.739,21.361 751.739,28.89 C751.739,36.369 757.66,42.453 764.937,42.453 C772.215,42.453 778.136,36.369 778.136,28.89 C778.136,21.361 772.215,15.236 764.937,15.236 Z M764.937,43.953 C756.833,43.953 750.239,37.196 750.239,28.89 C750.239,20.534 756.833,13.736 764.937,13.736 C773.042,13.736 779.636,20.534 779.636,28.89 C779.636,37.196 773.042,43.953 764.937,43.953 L764.937,43.953 Z" id="Fill-11"></path>
        </g>
    </g>
</svg>